<svg width="123" height="31" viewBox="0 0 123 31" fill="none" xmlns="http://www.w3.org/2000/svg">
<path fill-rule="evenodd" clip-rule="evenodd" d="M54.5009 26.1842C53.0279 26.1842 51.6158 25.5891 50.5741 24.5303C49.5328 23.4715 48.9479 22.0353 48.9479 20.5378V15.4601C48.9479 12.5242 46.6073 10.1442 43.72 10.1442C43.0139 10.1442 42.3675 10.2436 41.7816 10.4421C41.1807 10.6406 40.6474 10.9309 40.1817 11.3129C39.6708 11.7251 39.2955 12.1911 39.0551 12.7106C38.7846 13.291 38.6494 13.9327 38.6494 14.6353C38.6494 15.4908 38.7846 16.2087 39.0551 16.7891C39.3102 17.3392 39.6859 17.7899 40.1817 18.1412C40.6323 18.4619 41.1509 18.691 41.7367 18.8285C42.3825 18.9814 42.9835 19.0576 43.5395 19.0576C43.5395 19.0576 43.8789 19.0576 44.3465 19.0576C45.8673 19.0576 47.0999 20.3113 47.0999 21.8573C47.0999 21.8577 47.0999 21.8577 47.0999 21.858C47.0999 23.0051 46.6519 24.1056 45.8539 24.9168C45.0561 25.7282 43.9738 26.1842 42.8453 26.1842C42.3835 26.1842 42.0745 26.1842 42.0745 26.1842C40.9179 26.1842 39.6936 25.9547 38.4016 25.4965C37.1094 25.0383 35.9376 24.351 34.8861 23.4343C33.8195 22.5026 32.948 21.3339 32.2721 19.9284C31.5958 18.5078 31.2577 16.8044 31.2577 14.8188C31.2577 13.1228 31.5657 11.5648 32.1817 10.1442C32.7977 8.73866 33.6541 7.52439 34.7508 6.50078C35.8476 5.47748 37.1469 4.68297 38.6494 4.11788C40.0916 3.56778 41.7367 3.29272 43.5844 3.29272C43.5844 3.29272 47.5563 3.29272 51.0603 3.29272C52.4545 3.29272 53.7916 3.85586 54.7772 4.8583C55.763 5.86073 56.3168 7.22001 56.3168 8.63763C56.3168 13.6837 56.3168 20.965 56.3168 24.339C56.3168 24.8285 56.1255 25.2977 55.7854 25.6435C55.4451 25.9896 54.9836 26.1842 54.5022 26.1842C54.5018 26.1842 54.5012 26.1842 54.5009 26.1842Z" fill="#34271F"/>
<path fill-rule="evenodd" clip-rule="evenodd" d="M74.3673 10.1899H71.235C69.7027 10.1899 68.5384 10.6024 67.7419 11.4273C66.9609 12.2371 66.5702 13.3523 66.5702 14.7728C66.5702 16.1934 66.9609 17.3239 67.7419 18.164C68.5233 19.0042 69.6877 19.4242 71.235 19.4242H74.3673V25.1149C74.3673 25.3984 74.2567 25.6706 74.0596 25.871C73.8622 26.0714 73.5949 26.1842 73.316 26.1842C72.0033 26.1842 69.928 26.1842 69.928 26.1842C68.5608 26.1842 67.2464 25.9244 65.9843 25.405C64.7075 24.8855 63.5655 24.1448 62.5592 23.1824C61.5374 22.2047 60.7185 21.013 60.1025 19.6077C59.4869 18.1872 59.1789 16.5753 59.1789 14.7728C59.1789 13.0007 59.4869 11.3969 60.1025 9.96075C60.7035 8.57084 61.5223 7.37907 62.5592 6.38641C63.5956 5.39342 64.7373 4.64485 65.9843 4.1407C67.2163 3.63655 68.5307 3.38464 69.928 3.38464H73.316C73.8968 3.38464 74.3673 3.86305 74.3673 4.45356V10.1899Z" fill="#34271F"/>
<path fill-rule="evenodd" clip-rule="evenodd" d="M84.8463 12.9168C84.6207 13.4819 84.5082 14.1004 84.5082 14.7728C84.5082 15.4447 84.6207 16.0636 84.8463 16.6287C85.0716 17.1941 85.3796 17.7133 85.77 18.1871C86.1456 18.6453 86.6113 18.9966 87.1673 19.241C87.708 19.4854 88.309 19.6076 88.9701 19.6076C89.631 19.6076 90.2319 19.4854 90.7729 19.241C91.3438 18.9813 91.8171 18.63 92.1924 18.1871C92.5831 17.7133 92.8911 17.1941 93.1164 16.6287C93.3417 16.0636 93.4546 15.4447 93.4546 14.7728C93.4546 14.1004 93.3417 13.4819 93.1164 12.9168C92.9062 12.382 92.5982 11.8704 92.1924 11.3816C91.8171 10.9383 91.3438 10.587 90.7729 10.3273C90.1871 10.0676 89.5861 9.93786 88.9701 9.93786C88.3541 9.93786 87.7532 10.0676 87.1673 10.3273C86.6113 10.5717 86.1456 10.923 85.77 11.3816C85.3645 11.8704 85.0565 12.382 84.8463 12.9168ZM77.387 14.7728C77.387 13.1534 77.7027 11.6181 78.3335 10.167C78.9645 8.73109 79.8132 7.45557 80.8801 6.34038C81.9467 5.2405 83.1784 4.37755 84.5758 3.75119C85.9879 3.12483 87.4526 2.81165 88.9701 2.81165C90.5024 2.81165 91.9748 3.12483 93.3869 3.75119C94.784 4.37755 96.016 5.2405 97.0826 6.34038C98.1194 7.42494 98.9607 8.70046 99.6065 10.167C100.238 11.6181 100.553 13.1534 100.553 14.7728C100.553 16.4224 100.238 17.973 99.6065 19.4242C98.9758 20.8757 98.1345 22.1434 97.0826 23.2279C96.016 24.3278 94.784 25.1911 93.3869 25.8175C91.9748 26.4435 90.5024 26.7567 88.9701 26.7567C87.4526 26.7567 85.9879 26.4435 84.5758 25.8175C83.1784 25.1911 81.9467 24.3278 80.8801 23.2279C79.7984 22.1128 78.9495 20.845 78.3335 19.4242C77.7027 17.973 77.387 16.4224 77.387 14.7728Z" fill="#34271F"/>
<path fill-rule="evenodd" clip-rule="evenodd" d="M105.19 26.1842C104.359 26.1842 103.685 25.4991 103.685 24.6544C103.685 20.9624 103.685 11.4999 103.685 6.4998C103.685 4.72859 105.098 3.29272 106.839 3.29272C109.651 3.29272 113.331 3.29272 113.331 3.29272C114.953 3.29272 116.335 3.54496 117.477 4.04911C118.679 4.58357 119.685 5.30933 120.497 6.22573C121.323 7.15777 121.939 8.24982 122.345 9.50254C122.765 10.8162 122.975 12.1836 122.975 13.6042C122.975 13.6042 122.975 18.8601 122.975 22.5753C122.975 24.5684 121.386 26.1842 119.426 26.1842H119.426C117.466 26.1842 115.877 24.5684 115.877 22.5753C115.877 18.8601 115.877 13.6042 115.877 13.6042C115.877 12.6112 115.652 11.832 115.201 11.2669C114.75 10.7018 114.127 10.4193 113.331 10.4193C111.924 10.4193 110.784 11.5781 110.784 13.0081C110.784 15.0368 110.784 17.9352 110.784 20.4971C110.784 22.0053 110.195 23.4519 109.146 24.5182C108.097 25.5848 106.674 26.1842 105.191 26.1842H105.19Z" fill="#34271F"/>
<path fill-rule="evenodd" clip-rule="evenodd" d="M27.0083 -0.499933C27.0083 1.88416 26.0766 4.17052 24.4187 5.85635C22.7611 7.54218 20.5126 8.4891 18.1679 8.4891C16.8806 8.4891 15.578 8.4891 14.3557 8.4891C12.6923 8.4891 11.0971 9.16117 9.92089 10.3571C8.74433 11.5531 8.08377 13.1752 8.08377 14.8665C8.08377 15.7278 8.20104 16.516 8.4352 17.231C8.66936 17.9641 9.01194 18.6147 9.46257 19.1827C9.94896 19.8059 10.4988 20.2637 11.1117 20.557C11.7965 20.8869 12.5535 21.0519 13.3825 21.0519C14.3918 21.0519 15.2388 20.8869 15.9236 20.557C16.5727 20.2458 17.1044 19.7875 17.5189 19.1827C17.8973 18.633 18.1676 18.0005 18.3298 17.2858C18.5101 16.498 18.6001 15.7649 18.6001 15.0866C18.6001 15.0866 18.6001 14.6726 18.6001 14.1022C18.6001 13.2112 18.9481 12.3569 19.5679 11.7271C20.1873 11.0972 21.0274 10.7434 21.9033 10.7434H21.9052C23.2587 10.7434 24.5563 11.29 25.5134 12.2631C26.4704 13.2362 27.0083 14.5561 27.0083 15.9323C27.0083 16.4964 27.0083 16.8737 27.0083 16.8737C27.0083 18.2847 26.7376 19.7782 26.197 21.3541C25.6564 22.9305 24.8455 24.3599 23.7639 25.6426C22.6646 26.9437 21.2858 28.0068 19.6275 28.8313C17.9515 29.6563 15.9417 30.0687 13.599 30.0687C11.5981 30.0687 9.75979 29.693 8.08377 28.9416C6.42544 28.1901 4.9928 27.1455 3.7851 25.8076C2.57778 24.4697 1.64039 22.8848 0.973671 21.0519C0.324642 19.2926 0.00012207 17.2858 0.00012207 15.0319C0.00012207 15.0319 0.00012207 9.33515 0.00012207 4.84494C0.00012207 3.4273 0.554183 2.06791 1.54003 1.06548C2.52549 0.0630531 3.86278 -0.499933 5.25657 -0.499933C13.1137 -0.499933 27.0083 -0.499933 27.0083 -0.499933Z" fill="#C26F3C"/>
</svg>
