<svg width="27" height="31" viewBox="0 0 27 31" fill="none" xmlns="http://www.w3.org/2000/svg">
<path fill-rule="evenodd" clip-rule="evenodd" d="M27.0081 -5.52335e-05C27.0081 2.38404 26.0765 4.67039 24.4186 6.35623C22.761 8.04206 20.5125 8.98898 18.1678 8.98898C16.8805 8.98898 15.5779 8.98898 14.3555 8.98898C12.6922 8.98898 11.0969 9.66105 9.92076 10.857C8.74421 12.053 8.08365 13.6751 8.08365 15.3664C8.08365 16.2277 8.20092 17.0159 8.43508 17.7309C8.66924 18.464 9.01182 19.1145 9.46245 19.6826C9.94884 20.3058 10.4987 20.7636 11.1116 21.0568C11.7963 21.3868 12.5534 21.5518 13.3824 21.5518C14.3917 21.5518 15.2387 21.3868 15.9235 21.0568C16.5725 20.7456 17.1043 20.2874 17.5188 19.6826C17.8971 19.1329 18.1674 18.5003 18.3297 17.7857C18.51 16.9979 18.6 16.2648 18.6 15.5865C18.6 15.5865 18.6 15.1725 18.6 14.602C18.6 13.711 18.948 12.8568 19.5678 12.2269C20.1872 11.5971 21.0273 11.2433 21.9032 11.2433H21.9051C23.2585 11.2433 24.5562 11.7898 25.5132 12.763C26.4702 13.7361 27.0081 15.0559 27.0081 16.4321C27.0081 16.9963 27.0081 17.3736 27.0081 17.3736C27.0081 18.7846 26.7375 20.2781 26.1969 21.854C25.6563 23.4304 24.8454 24.8597 23.7638 26.1425C22.6645 27.4436 21.2857 28.5067 19.6274 29.3312C17.9513 30.1561 15.9416 30.5686 13.5989 30.5686C11.5979 30.5686 9.75967 30.1929 8.08365 29.4414C6.42532 28.69 4.99268 27.6454 3.78498 26.3075C2.57766 24.9696 1.64026 23.3846 0.973549 21.5518C0.32452 19.7925 0 17.7857 0 15.5318C0 15.5318 0 9.83503 0 5.34481C0 3.92718 0.55406 2.56779 1.53991 1.56536C2.52537 0.562931 3.86265 -5.52335e-05 5.25645 -5.52335e-05C13.1136 -5.52335e-05 27.0081 -5.52335e-05 27.0081 -5.52335e-05Z" fill="#C26F3C"/>
</svg>
